# xmcd CD database file
#
# Track frame offsets:
#	150
#	11822
#	23657
#	35067
#	48865
#	62255
#	75025
#	94632
#	109770
#	125250
#	134677
#	148272
#	164355
#	186712
#	204065
#	216517
#	228762
#	239492
#	261525
#	277280
#	290242
#
# Disc length: 4120 seconds
#
# Revision: 2
# Processed by: cddbd v1.5.2PL0 Copyright (c) Steve Scherf et al.
# Submitted via: CDex 1.70beta2
#
DISCID=3d101615
DTITLE=Various Artist - The Blues: A Musical Journey [CD4]
DYEAR=2003
DGENRE=Blues
TTITLE0=Freddie King - Hide Away
TTITLE1=Junior Parker - Drivin' Wheel
TTITLE2=John Lee Hooker - Boom Boom
TTITLE3=Albert Collins - Frosty
TTITLE4=Muddy Waters - You Can't Lose What You Ain't Never Had
TTITLE5=Howlin' Wolf - Killing Floor
TTITLE6=Son House - Death Letter Blues
TTITLE7=Mississippi Fred McDowell - You Gotta Move
TTITLE8=Bob Dylan - Highway 61 Revisited
TTITLE9=Junior Wells - Hoodoo Man Blues
TTITLE10=Koko Taylor - Wang Dang Doodle
TTITLE11=John Mayall's Bluesbreakers with Eric Clapton - All Your Love
TTITLE12=Paul Butterfield Blues Band - I've Got A Mind To Give Up Livin'
TTITLE13=Jimi Hendrix - Red House
TTITLE14=Albert King - Born Under The Bad Sign
TTITLE15=Magic Sam - Mama Talk To Your Daughter
TTITLE16=Etta James - Tell Mama
TTITLE17=The Jeff Beck Group - Ain't Superstitious
TTITLE18=Taj Mahal - She Caught The Katy (And Left Me A Mule To Ride)
TTITLE19=Fleetwood Mac - Black Magic Woman
TTITLE20=Janis Joplin - One Good Man
EXTD=YEAR: 2003
EXTT0=
EXTT1=
EXTT2=
EXTT3=
EXTT4=
EXTT5=
EXTT6=
EXTT7=
EXTT8=
EXTT9=
EXTT10=
EXTT11=
EXTT12=
EXTT13=
EXTT14=
EXTT15=
EXTT16=
EXTT17=
EXTT18=
EXTT19=
EXTT20=
PLAYORDER=
